<?xml version="1.0" standalone="no"?>
<!DOCTYPE svg PUBLIC "-//W3C//DTD SVG 20010904//EN"
 "http://www.w3.org/TR/2001/REC-SVG-20010904/DTD/svg10.dtd">
<svg version="1.0" xmlns="http://www.w3.org/2000/svg"
 width="475.000000pt" height="475.000000pt" viewBox="0 0 475.000000 475.000000"
 preserveAspectRatio="xMidYMid meet">
<metadata>
Created by potrace 1.11, written by Peter Selinger 2001-2013
</metadata>
<g transform="translate(0.000000,475.000000) scale(0.100000,-0.100000)"
fill="#000000" stroke="none">
<path d="M2026 4369 c-129 -21 -286 -145 -358 -284 -67 -130 -95 -241 -195
-760 l-8 -40 -175 -3 c-164 -2 -176 -3 -192 -23 -21 -25 -23 -60 -6 -77 8 -8
63 -12 180 -12 92 0 168 -3 168 -7 0 -3 -34 -187 -75 -407 -253 -1343 -322
-1662 -386 -1788 -26 -51 -75 -106 -113 -125 -45 -24 -140 -21 -203 7 -73 31
-84 47 -39 55 55 11 120 57 142 101 11 23 19 60 19 92 0 49 -3 56 -37 88 -33
29 -45 34 -88 34 -118 0 -202 -90 -202 -215 -1 -103 48 -171 155 -220 71 -33
155 -45 225 -34 230 36 415 316 541 817 43 172 161 761 257 1285 l58 317 206
0 c150 0 210 3 222 13 21 16 29 56 17 79 -9 17 -26 18 -214 18 -113 0 -205 4
-205 9 0 16 121 636 145 745 14 60 34 123 44 140 77 123 203 152 345 78 l51
-26 -32 -6 c-93 -20 -162 -92 -171 -178 -8 -90 41 -142 135 -142 62 0 118 32
158 88 28 40 30 50 30 126 0 74 -3 87 -28 125 -63 96 -227 153 -371 130z"/>
<path d="M4160 3409 c-33 -13 -68 -47 -86 -81 -22 -42 -18 -119 9 -159 24 -37
97 -79 137 -79 40 0 113 42 137 79 46 69 24 170 -49 224 -31 23 -111 32 -148
16z"/>
<path d="M4150 2008 c-115 -58 -123 -203 -17 -282 21 -16 43 -21 87 -21 66 0
99 18 138 75 31 46 31 124 -1 171 -24 37 -97 79 -137 79 -14 0 -46 -10 -70
-22z"/>
</g>
</svg>
